# xmcd
#
# Track frame offsets:
#	150
#	13751
#	30414
#	43577
#	59019
#	72785
#	90062
#	113814
#	131356
#	143111
#
# Disc length: 2105 seconds
#
# Revision: 1
# Processed by: cddbd v1.5.2PL0 Copyright (c) Steve Scherf et al.
# Submitted via: audiograbber 1.83.01
#
DISCID=7b08370a
DTITLE=Sharron Kay king - The Road I Know
DYEAR=2006
DGENRE=Southern Gospel
TTITLE0=The Least One In The Kingdom
TTITLE1=You Never Gave Up On Me
TTITLE2=Some Good News
TTITLE3=Coat Of Many Colors
TTITLE4=There's Still Hope In The Cross
TTITLE5=I'd Walk This Valley Again
TTITLE6=When I Say Christian
TTITLE7=I'll Take The Road I Know
TTITLE8=Oh I Want To See Him
TTITLE9=Everything Heaven Won't Be
EXTD=
EXTT0=
EXTT1=
EXTT2=
EXTT3=
EXTT4=
EXTT5=
EXTT6=
EXTT7=
EXTT8=
EXTT9=
PLAYORDER=
